<svg width="111" height="74" viewBox="0 0 111 74" fill="none" xmlns="http://www.w3.org/2000/svg">
<path d="M26.6021 57.1649L31.9676 57.1404C31.9248 58.2841 31.9789 59.5182 31.965 60.6717C31.9254 63.9541 32.05 67.3375 31.9614 70.6101C30.6504 70.5744 29.3387 70.573 28.0276 70.608C28.0573 69.1292 28.0387 67.5745 28.0428 66.0901C28.0526 64.6715 28.0701 63.2536 28.0954 61.8358C27.2416 64.1982 26.3299 66.5395 25.3612 68.8585L22.3982 68.8501C21.6257 66.6602 20.5546 64.1358 19.7001 61.9459C19.7728 63.025 19.7368 64.4759 19.7405 65.5747C19.7459 67.2197 19.7629 68.9658 19.7115 70.6059L15.7761 70.5996C15.8409 66.1735 15.7876 61.584 15.781 57.1481L21.2059 57.146C22.1511 59.3843 23.0151 61.9087 23.9106 64.1961C24.7215 61.9374 25.7192 59.4025 26.6021 57.1649Z" fill="#FCFCFC"/>
<path d="M33.9336 57.1459L38.978 57.1339C41.3537 57.1318 44.5727 56.906 45.7385 59.4248C46.6717 61.4415 46.4629 64.7415 44.3382 65.9841C43.5599 66.4391 42.8861 66.6088 42.0125 66.7323C41.1016 66.8325 39.0534 66.7694 38.0662 66.7617L38.0765 70.5834C36.6746 70.5658 35.2725 70.5651 33.8706 70.582C33.9199 69.8814 33.8992 69.2286 33.8998 68.5295C33.903 64.7352 33.8618 60.9402 33.9336 57.1459Z" fill="#FCFCFC"/>
<path d="M38.0681 60.0412C38.9457 60.0363 40.8553 59.8883 41.5521 60.3189C42.4516 60.8735 42.3026 62.6483 41.7234 63.4512C40.9141 63.9758 39.0962 63.8271 38.0508 63.8285C38.0874 62.6007 38.0674 61.2768 38.0681 60.0412Z" fill="#20201F"/>
<path d="M74.6059 60.4717C75.7547 60.2915 79.073 60.551 80.2853 60.6344C80.219 62.9786 80.306 65.3957 80.2682 67.7476C80.2133 68.7686 80.388 70.0083 80.1848 71.0013C79.3759 74.9499 73.6266 74.0502 70.9184 73.5215L70.9762 72.4535L71.0168 70.8821C72.2419 71.2432 75.2929 71.8778 76.399 70.8912C76.6991 70.6233 76.6363 69.9193 76.6385 69.528C74.1491 70.7895 70.6469 70.1935 70.4053 66.9026C70.1409 63.3089 70.344 60.9219 74.6059 60.4717Z" fill="#FCFCFC"/>
<path d="M75.1407 63.0551C75.6331 63.0137 76.1349 63.0333 76.6295 63.041C76.6102 64.1448 76.8091 65.9511 76.4093 66.9812C76.3024 67.2568 75.8099 67.3669 75.5327 67.4342C74.0795 67.5324 74.0153 66.4139 74.0246 65.2892C74.0346 64.1784 74.0096 63.4905 75.1407 63.0551Z" fill="#20201F"/>
<path d="M92.9896 60.4704C95.3615 60.1078 99.0062 60.687 99.324 63.6266C99.6953 67.0632 99.6868 70.0014 95.5346 70.6654C93.0666 70.9382 89.6336 70.5981 89.2423 67.4601C89.0342 65.7926 88.908 63.2619 89.9429 61.8392C90.6328 60.8897 91.86 60.6057 92.9896 60.4704Z" fill="#FCFCFC"/>
<path d="M93.9736 63.0593C94.6072 63.0586 95.4375 63.1476 95.5323 63.9028C95.6912 65.1685 96.2093 67.7294 94.5452 68.1235C93.5531 68.1599 92.9937 67.9881 92.8647 66.9062C92.7464 65.916 92.6167 64.3074 93.1861 63.4295C93.3614 63.1581 93.6878 63.1062 93.9736 63.0593Z" fill="#20201F"/>
<path d="M64.078 60.4058C67.2131 60.3652 69.5422 61.0257 69.3141 64.6146C69.2806 65.1419 69.3077 65.8417 69.3063 66.3908C69.2963 67.7904 69.3134 69.19 69.359 70.589C68.2957 70.5504 67.119 70.5834 66.0464 70.5925L65.901 69.6402C64.502 70.9669 62.458 71.042 60.7846 70.1914C59.7277 69.42 59.5617 68.3121 59.6215 67.0941C59.7705 64.0578 63.5599 64.3229 65.7321 64.4904C65.7328 64.3369 65.7378 63.9 65.7029 63.7668C65.4955 62.9667 64.1749 63.0151 63.4822 63.0165C62.6348 63.0193 61.6826 63.1518 60.8395 63.365C60.6956 62.5432 60.5601 61.7297 60.3784 60.9149C61.5372 60.5832 62.8764 60.4654 64.078 60.4058Z" fill="#FCFCFC"/>
<path d="M64.3556 66.4307C64.8146 66.4041 65.2572 66.4476 65.7155 66.4805C65.7383 67.7301 65.8872 68.0225 64.526 68.2841C64.2388 68.2925 63.9245 68.3093 63.6665 68.174C63.1369 67.897 63.0015 67.2406 63.3907 66.7869C63.6658 66.4679 63.9637 66.4707 64.3556 66.4307Z" fill="#20201F"/>
<path d="M47.4655 57.1454L51.5478 57.1517C51.4987 60.899 51.5716 64.6611 51.5466 68.4091C51.5418 69.137 51.5698 69.8873 51.5212 70.6123C50.1617 70.5857 48.8019 70.5759 47.4421 70.5815C47.5108 69.0395 47.4651 67.3482 47.4666 65.7935L47.4655 57.1454Z" fill="#FCFCFC"/>
<path d="M87.8486 60.4655C88.0852 60.4423 88.5036 60.4479 88.7545 60.443L88.7195 63.7591C85.0335 63.6013 85.2908 65.1994 85.387 68.0316C85.4148 68.8443 85.3956 69.7791 85.392 70.5946C84.1954 70.542 82.9981 70.6156 81.8015 70.5742C81.763 70.5399 81.7238 70.5062 81.6846 70.4726C81.7309 67.214 81.6924 63.8509 81.6953 60.5833C82.8178 60.5903 83.9402 60.5903 85.0627 60.5854C85.1155 61.0552 85.1632 61.5257 85.2067 61.9969C85.2701 61.9016 85.335 61.8083 85.4027 61.7157C86.0142 60.8876 86.8772 60.6085 87.8486 60.4655Z" fill="#FCFCFC"/>
<path d="M53.1221 63.5389C54.8345 63.6314 56.8013 63.5585 58.5367 63.5452L58.4997 66.6944L53.1237 66.6923L53.1221 63.5389Z" fill="#FCFCFC"/>
<path d="M0.474273 16.1843L0.689306 16.2415C0.810634 16.4638 1.03304 16.9362 0.979019 17.1719L0.839651 17.215C-0.0121325 17.172 -0.353432 16.4499 0.474273 16.1843Z" fill="url(#paint0_linear_70_288)"/>
<path d="M37.7374 4.23536C37.9934 3.60993 39.0371 0.258918 39.5415 0.181815C41.451 -0.109986 44.4055 -0.0597544 46.2734 0.399445C46.6788 0.49922 47.3157 4.17282 47.4375 4.75867C48.3955 5.0663 49.478 5.388 50.4066 5.74957C51.5063 4.78593 52.6335 3.67687 53.9272 2.99907C55.1225 3.59185 59.189 5.95138 59.5967 7.06972C59.5506 8.37451 58.4069 10.4599 58.4295 11.0759L58.5504 11.1126C59.5918 11.491 60.2049 11.712 61.2827 11.9405C61.2001 12.3036 61.1687 12.6707 60.9015 12.9107C60.59 13.0198 60.3238 12.9143 60.0025 12.8181C59.9318 12.7359 59.8237 12.6693 59.7304 12.6015C59.6537 13.1399 59.7471 12.981 59.4356 13.3735C58.7105 13.6074 58.8314 13.2737 58.4345 13.2423C57.9845 12.8791 57.2398 11.9744 56.892 11.4936C56.7082 12.5359 55.0999 13.4846 54.1587 14.6244C53.6327 13.9964 52.87 13.127 52.0867 12.8914C52.5509 13.2985 53.2393 13.8679 53.631 14.3105C54.3797 15.138 55.2944 16.2435 55.9606 17.1411C56.3339 17.6019 56.498 18.1222 57.1071 18.1989C56.6768 19.7731 55.6029 23.5211 56.1315 24.9544C56.3074 25.1338 56.3683 25.1992 56.5677 25.3482C57.5099 25.7778 58.3706 26.2942 59.3423 26.6527L59.4022 28.3405C58.1947 28.3392 56.9833 28.3239 55.7778 28.387C53.8395 28.4533 51.9024 28.5428 49.9666 28.6555C50.1563 25.8761 49.9778 23.8262 48.0245 21.593C46.5469 19.9328 44.4588 18.935 42.2323 18.8252C40.0909 18.7021 37.6853 19.4819 36.119 20.9497C33.0372 23.8378 32.9048 27.3087 34.3496 31.0075C32.7803 31.3665 30.6146 31.8143 29.1076 32.2658C28.2685 32.494 26.7501 32.9494 25.9332 33.0955C24.5317 33.6106 22.9005 34.0633 21.4616 34.5269C20.9592 34.7235 20.8265 34.7906 20.3045 34.8696C20.0408 33.8698 19.7462 32.9523 19.4312 31.9691C18.5611 31.7482 15.0016 31.343 14.8188 30.6493C14.3413 28.8383 13.9424 25.9516 14.2219 24.1036C14.3021 23.574 17.8137 22.4655 18.5141 22.1817C18.7133 21.2758 19.0561 20.5053 19.2038 19.6048C19.2568 19.2808 19.0816 19.1894 18.8627 18.9509C18.258 18.6064 16.2794 16.8175 15.9056 16.231C16.2655 15.0362 18.5238 10.8359 19.4695 10.1406C20.1357 9.97589 20.9511 10.3473 21.6223 10.5704C22.4558 10.7747 23.2966 11.0391 24.1203 11.286C24.9163 10.4216 25.517 9.86781 26.3976 9.08974C26.1753 8.27395 25.3582 5.36836 25.5485 4.71752C26.4904 3.61286 29.9752 2.13666 31.4186 1.64297C32.0771 1.41782 34.3452 4.31168 34.9596 4.89489C35.9732 4.58912 36.7082 4.43892 37.7374 4.23536Z" fill="#1C1C1B"/>
<path d="M37.7371 4.23536C37.9931 3.60993 39.0368 0.258918 39.5412 0.181815C41.4507 -0.109986 44.4052 -0.0597544 46.2731 0.399445C46.6785 0.49922 47.3154 4.17282 47.4372 4.75867C48.3952 5.0663 49.4777 5.388 50.4063 5.74957C51.506 4.78593 52.6332 3.67687 53.9269 2.99907C55.1222 3.59185 59.1887 5.95138 59.5964 7.06972C59.5503 8.37451 58.4066 10.4599 58.4292 11.0759L58.5501 11.1126C59.5915 11.491 60.2046 11.712 61.2824 11.9405C61.1998 12.3036 61.1684 12.6707 60.9012 12.9107C60.5897 13.0198 60.3235 12.9143 60.0022 12.8181C59.9315 12.7359 59.8234 12.6693 59.73 12.6015C59.6534 13.1399 59.7467 12.981 59.4353 13.3735C58.7102 13.6074 58.8311 13.2737 58.4341 13.2423C57.9842 12.8791 57.2394 11.9744 56.8917 11.4936C56.7079 12.5359 55.0996 13.4846 54.1584 14.6244C53.6324 13.9964 52.8697 13.127 52.0864 12.8914C46.5492 9.06004 40.5129 8.46138 34.2949 11.0661C30.6853 12.9265 28.804 14.5232 26.5499 17.94L26.3886 17.934C26.151 18.3215 25.6353 19.3931 25.3682 19.5297C24.1919 19.3775 21.8843 18.921 20.8467 18.9757C20.5976 18.7151 20.2113 18.269 19.9174 18.1001L19.7406 18.1148L19.1729 17.7582L19.4229 18.2196C19.2851 18.6612 18.9863 18.4402 18.8624 18.9509C18.2577 18.6064 16.2791 16.8175 15.9053 16.231C16.2652 15.0362 18.5235 10.8359 19.4692 10.1406C20.1354 9.97589 20.9508 10.3473 21.622 10.5704C22.4555 10.7747 23.2963 11.0391 24.12 11.286C24.916 10.4216 25.5167 9.86781 26.3973 9.08974C26.175 8.27395 25.3578 5.36836 25.5482 4.71752C26.4901 3.61286 29.9749 2.13666 31.4183 1.64297C32.0768 1.41782 34.3449 4.31168 34.9593 4.89489C35.9729 4.58912 36.7079 4.43892 37.7371 4.23536Z" fill="url(#paint1_linear_70_288)"/>
<path d="M27.5872 9.53407C27.4042 8.16947 26.9255 6.73988 26.7845 5.37098C26.7621 5.15404 26.8214 5.18677 27.0368 4.97364C29.4387 6.65711 30.7156 5.56731 32.8735 6.12882C33.2645 6.69512 34.0518 10.1811 34.2949 11.0661C30.6853 12.9265 28.804 14.5232 26.5499 17.94L26.3886 17.9339C26.151 18.3215 25.6353 19.393 25.3682 19.5297C24.1919 19.3775 21.8843 18.9209 20.8467 18.9757C20.5976 18.715 20.2113 18.269 19.9174 18.1001L19.7406 18.1148L19.1729 17.7581L19.4229 18.2196C19.2851 18.6612 18.9863 18.4401 18.8624 18.9508C18.2577 18.6064 16.2791 16.8175 15.9053 16.231C16.2652 15.0362 18.5235 10.8359 19.4692 10.1405C20.1354 9.97588 20.9508 10.3473 21.622 10.5704C20.7966 10.6859 19.6622 9.88138 19.1996 10.556C18.7753 11.1748 18.3647 11.8921 17.9687 12.5405C18.4315 12.7776 18.3913 12.8607 18.7773 12.7748C19.4413 12.201 19.2125 11.4819 20.0718 11.2146L20.5287 11.3111L20.5088 11.3973C20.8427 11.6547 23.765 12.4532 24.3282 12.6155C25.0295 12.0599 27.0057 10.1849 27.5872 9.53407Z" fill="url(#paint2_linear_70_288)"/>
<path d="M15.9053 16.231C16.2652 15.0362 18.5235 10.836 19.4692 10.1406C20.1354 9.97589 20.9508 10.3473 21.622 10.5704C20.7966 10.686 19.6622 9.8814 19.1996 10.556C18.7753 11.1749 18.3647 11.8921 17.9687 12.5405C18.4315 12.7776 18.3913 12.8607 18.7773 12.7748C19.4413 12.201 19.2125 11.4819 20.0718 11.2146L20.5287 11.3111L20.5088 11.3973C20.2411 11.3687 20.0572 11.2866 19.9031 11.4774C18.954 12.653 17.9357 14.657 17.2338 15.9726C17.4772 16.1909 19.0642 17.588 19.1729 17.7582L19.4229 18.2196C19.2851 18.6612 18.9863 18.4402 18.8624 18.9509C18.2577 18.6064 16.2791 16.8175 15.9053 16.231Z" fill="url(#paint3_linear_70_288)"/>
<path d="M37.7372 4.23536C37.9931 3.60993 39.0368 0.258918 39.5412 0.181814C41.4508 -0.109986 44.4052 -0.0597544 46.2731 0.399445C46.6786 0.49922 47.3154 4.17282 47.4373 4.75867C48.3953 5.0663 49.4778 5.388 50.4063 5.74957C51.506 4.78593 52.6332 3.67687 53.927 2.99907C55.1223 3.59185 59.1888 5.95137 59.5965 7.06971C59.5503 8.37451 58.4067 10.4599 58.4293 11.0759L58.5501 11.1126C59.5916 11.491 60.2046 11.712 61.2824 11.9405C61.1999 12.3035 61.1685 12.6707 60.9012 12.9107C60.5898 13.0198 60.3235 12.9143 60.0023 12.8181C59.9315 12.7359 59.8234 12.6693 59.7301 12.6015C59.6535 13.1399 59.7468 12.981 59.4354 13.3735C58.7103 13.6074 58.8311 13.2737 58.4342 13.2423C57.9842 12.8791 57.2395 11.9744 56.8917 11.4936C57.5058 10.3496 58.0844 8.58285 58.4961 7.34373C57.4419 6.46793 55.2176 5.08477 54.0307 4.32399C53.0815 4.99789 51.4371 6.53566 50.5595 7.02534C45.4206 5.40109 46.667 6.57357 45.4579 1.35654C43.6931 1.27231 41.9267 1.22686 40.16 1.22041C39.9063 2.1866 39.0582 4.48367 38.6194 5.34715C37.3066 5.58521 36.0016 5.86332 34.706 6.18141C34.0323 5.76707 32.0662 3.59997 31.3701 2.87027C29.8916 3.48905 28.4843 4.27718 27.0369 4.97365C26.8214 5.18679 26.7622 5.15405 26.7846 5.371C26.9256 6.7399 27.4042 8.16948 27.5873 9.53409C27.0057 10.1849 25.0296 12.0599 24.3283 12.6155C23.7651 12.4532 20.8428 11.6547 20.5089 11.3973L20.5288 11.3111L20.0719 11.2146C19.2126 11.4819 19.4414 12.201 18.7773 12.7748C18.3913 12.8607 18.4316 12.7776 17.9688 12.5405C18.3648 11.8921 18.7754 11.1749 19.1997 10.556C19.6623 9.8814 20.7966 10.6859 21.622 10.5704C22.4556 10.7747 23.2964 11.0391 24.1201 11.286C24.9161 10.4216 25.5168 9.86781 26.3974 9.08974C26.175 8.27395 25.3579 5.36836 25.5482 4.71752C26.4901 3.61286 29.975 2.13666 31.4184 1.64297C32.0768 1.41782 34.345 4.31168 34.9593 4.89489C35.973 4.58911 36.708 4.43892 37.7372 4.23536Z" fill="url(#paint4_linear_70_288)"/>
<path d="M58.55 11.1126C59.5915 11.491 60.2045 11.7121 61.2823 11.9405C61.1998 12.3036 61.1683 12.6707 60.9011 12.9107C60.5897 13.0198 60.3234 12.9143 60.0021 12.8181C59.9314 12.7359 59.8233 12.6694 59.73 12.6015C59.279 12.2599 58.3683 11.705 58.55 11.1126Z" fill="#413F40"/>
<path d="M20.847 18.9757C21.8846 18.921 24.1922 19.3775 25.3685 19.5297C25.6356 19.3931 26.1513 18.3215 26.3889 17.934L26.5502 17.94C26.4511 18.1445 26.3548 18.3357 26.2711 18.5475C26.2027 19.1821 26.0013 19.3271 26.67 19.5323C25.9342 21.1984 25.1155 23.3224 25.0405 25.1516C25.0521 25.4457 25.0178 25.8909 25.2301 26.0831C25.7474 26.5513 27.058 26.1112 27.5993 26.4398L27.6807 26.3854L27.7377 26.0737C27.8736 26.4797 27.648 26.6688 27.8671 27.0104C27.9994 28.9236 28.2481 30.5304 29.1076 32.2658C28.2685 32.494 26.7501 32.9494 25.9332 33.0955C24.5317 33.6107 22.9005 34.0633 21.4616 34.5269C20.9592 34.7235 20.8265 34.7906 20.3045 34.8696C20.0408 33.8698 19.7462 32.9523 19.4312 31.9691C18.5611 31.7483 15.0016 31.343 14.8188 30.6493C14.3413 28.8383 13.9424 25.9516 14.2219 24.1036C14.3021 23.574 17.8137 22.4655 18.5141 22.1817C18.7133 21.2758 19.0561 20.5053 19.2038 19.6048C19.2568 19.2808 19.0816 19.1894 18.8627 18.9509C18.9866 18.4402 19.2854 18.6612 19.4232 18.2196L19.1732 17.7582L19.7409 18.1148L19.9177 18.1001C20.2116 18.269 20.5979 18.7151 20.847 18.9757Z" fill="url(#paint5_linear_70_288)"/>
<path d="M20.8464 18.9757C21.884 18.9209 24.1917 19.3775 25.3679 19.5296C25.635 19.393 26.1507 18.3215 26.3883 17.9339L26.5496 17.94C26.4505 18.1444 26.3542 18.3357 26.2705 18.5474C26.2021 19.182 26.0007 19.3271 26.6694 19.5323C25.9336 21.1984 25.1149 23.3224 25.0399 25.1515C24.8931 25.8709 24.9475 26.9015 24.9391 27.6674C24.4654 26.9143 24.9195 26.9648 24.6238 26.3998L24.2702 26.3778L24.2474 26.4435C24.2294 26.439 24.2114 26.4345 24.1934 26.43C23.3112 26.4139 22.2023 26.1246 21.3081 25.9485C19.9647 25.6749 18.6133 25.4424 17.2556 25.2509C16.6597 25.1691 16.0557 25.0563 15.4528 25.0815L15.2222 24.8419C15.5588 24.5203 18.9449 23.3857 19.6832 23.0984C19.9527 21.7379 20.3689 20.4169 20.6584 19.0398C20.3462 18.7275 19.9776 18.4791 19.7403 18.1148L19.9172 18.1001C20.211 18.269 20.5973 18.715 20.8464 18.9757Z" fill="url(#paint6_linear_70_288)"/>
<path d="M26.2703 18.5475C26.2019 19.1821 26.0005 19.3271 26.6692 19.5323C25.9334 21.1984 25.1147 23.3224 25.0398 25.1516C24.8929 25.8709 24.9473 26.9015 24.939 27.6674C24.4652 26.9143 24.9193 26.9648 24.6236 26.3999L24.27 26.3778C24.1881 23.782 24.9741 20.8002 26.2703 18.5475Z" fill="url(#paint7_linear_70_288)"/>
<path d="M19.1732 17.7582L19.7409 18.1148C19.9782 18.4792 20.3468 18.7276 20.6589 19.0398C20.3695 20.4169 19.9533 21.7379 19.6838 23.0984C18.9455 23.3857 15.5593 24.5204 15.2227 24.842C15.4931 26.4079 15.5435 28.2894 15.8173 29.998C17.0115 30.2411 19.2416 30.6305 20.3291 30.9706C20.6217 31.7804 21.3288 33.7221 21.4616 34.5269C20.9592 34.7235 20.8265 34.7906 20.3045 34.8696C20.0408 33.8698 19.7462 32.9523 19.4312 31.9691C18.5611 31.7483 15.0016 31.343 14.8188 30.6493C14.3413 28.8383 13.9424 25.9516 14.2219 24.1036C14.3021 23.574 17.8137 22.4655 18.5141 22.1817C18.7133 21.2758 19.0561 20.5053 19.2038 19.6048C19.2568 19.2808 19.0816 19.1894 18.8627 18.9509C18.9866 18.4402 19.2854 18.6612 19.4232 18.2196L19.1732 17.7582Z" fill="url(#paint8_linear_70_288)"/>
<path d="M25.0401 25.1516C25.0516 25.4457 25.0174 25.8909 25.2297 26.0831C25.7469 26.5512 27.0575 26.1112 27.5988 26.4398L27.6803 26.3854L27.7373 26.0737C27.8731 26.4797 27.6476 26.6688 27.8667 27.0104C27.9989 28.9236 28.2477 30.5304 29.1071 32.2658C28.268 32.494 26.7497 32.9494 25.9327 33.0955C26.018 32.7921 25.3166 30.5804 25.2166 29.9624C25.0815 29.1284 25.0095 28.5244 24.9392 27.6674C24.9476 26.9015 24.8932 25.8709 25.0401 25.1516Z" fill="url(#paint9_linear_70_288)"/>
<path d="M24.2704 26.3778L24.6239 26.3999C24.9197 26.9648 24.4656 26.9143 24.9393 27.6674C25.0096 28.5244 25.0816 29.1284 25.2167 29.9624C25.3167 30.5804 26.0181 32.7921 25.9328 33.0954L25.7296 33.028C24.7636 31.4723 24.345 28.2521 24.2476 26.4435L24.2704 26.3778Z" fill="url(#paint10_linear_70_288)"/>
<path d="M34.2947 11.0661C40.5127 8.46141 46.5491 9.06006 52.0862 12.8914C52.5505 13.2985 53.2388 13.8679 53.6305 14.3105C53.3265 14.5759 53.4949 14.5013 53.1206 14.571L52.9204 14.4748C52.4508 15.1332 51.6454 15.8138 50.9978 16.3001C50.7336 16.3146 50.8222 16.3206 50.5679 16.2588L49.2392 15.3447C42.0805 11.3786 33.5488 13.0438 29.4144 20.4789C28.2005 22.6619 27.9905 24.5671 27.8666 27.0104C27.6475 26.6688 27.8731 26.4797 27.7373 26.0737L27.6803 26.3854L27.5988 26.4399C27.0575 26.1112 25.7469 26.5513 25.2297 26.0831C25.0173 25.891 25.0516 25.4457 25.04 25.1516C25.115 23.3224 25.9337 21.1984 26.6695 19.5323C26.0008 19.3271 26.2022 19.1821 26.2706 18.5475C26.3543 18.3357 26.4506 18.1445 26.5497 17.94C28.8038 14.5233 30.6851 12.9266 34.2947 11.0661Z" fill="url(#paint11_linear_70_288)"/>
<path d="M34.2949 11.0661C40.5128 8.46141 46.5492 9.06006 52.0864 12.8914C52.5506 13.2985 53.2389 13.8679 53.6307 14.3105C53.3267 14.5759 53.4951 14.5013 53.1208 14.571L52.9205 14.4748C52.536 14.1435 52.2324 13.9424 51.8167 13.658C50.2855 12.4498 47.9779 11.4992 46.1043 10.9922C39.842 9.29782 32.83 11.4396 28.7141 16.4576C27.9548 17.3834 27.3052 18.5099 26.6696 19.5323C26.001 19.3271 26.2024 19.1821 26.2707 18.5475C26.3544 18.3357 26.4507 18.1445 26.5499 17.94C28.804 14.5233 30.6852 12.9266 34.2949 11.0661Z" fill="url(#paint12_linear_70_288)"/>
<path d="M51.8166 13.658C52.2323 13.9424 52.5359 14.1435 52.9204 14.4748C52.4509 15.1332 51.6455 15.8137 50.9979 16.3001C50.7336 16.3146 50.8222 16.3205 50.568 16.2588L49.2393 15.3447L49.3674 15.2931C49.839 15.4181 49.8239 15.7024 50.2339 15.7005C50.7563 15.3423 51.5214 14.4946 51.8817 13.9771L51.8166 13.658Z" fill="#9F9E9E"/>
<path d="M53.631 14.3105C54.3797 15.138 55.2944 16.2435 55.9605 17.1411C56.3339 17.6019 56.4979 18.1222 57.1071 18.1989C56.6767 19.7731 55.6029 23.5211 56.1315 24.9544C56.3073 25.1338 56.3682 25.1992 56.5677 25.3482C56.3417 25.3127 55.9635 25.2148 55.7277 25.1609C55.039 21.4517 53.5726 18.6649 50.5684 16.2588C50.8226 16.3205 50.734 16.3146 50.9983 16.3001C51.6458 15.8138 52.4513 15.1332 52.9208 14.4748L53.121 14.571C53.4954 14.5012 53.327 14.5759 53.631 14.3105Z" fill="url(#paint13_linear_70_288)"/>
<path d="M53.6305 14.3105C54.3793 15.138 55.294 16.2435 55.9601 17.1411C55.6634 17.0666 53.7717 15.0783 53.1206 14.571C53.4949 14.5012 53.3265 14.5759 53.6305 14.3105Z" fill="#646364"/>
<path d="M55.7275 25.1609C55.9633 25.2148 56.3416 25.3127 56.5676 25.3482C57.5098 25.7778 58.3704 26.2942 59.3421 26.6527L59.402 28.3405C58.1946 28.3392 56.9831 28.3239 55.7776 28.387C55.9682 27.5226 55.8258 26.0238 55.7275 25.1609Z" fill="#413F40"/>
<path d="M75.2625 6.46247C76.4386 6.28813 79.8242 6.05877 80.9216 6.61335C81.2753 6.79199 81.8874 9.26262 82.1262 9.9071L85.9775 11.2363C86.8558 10.6312 87.9611 9.52491 88.812 9.30376C89.9556 9.54308 92.2448 11.5182 93.0023 12.4514C93.4739 13.0322 92.2045 15.139 91.9117 15.8383C92.1465 16.2385 92.3774 16.6413 92.6024 17.0467C92.9217 17.4974 93.7067 18.6141 93.8325 19.1097C94.4033 19.1241 97.2545 19.1224 97.5325 19.4829C98.2114 20.363 98.6211 23.0103 98.5975 24.1258C98.5798 24.9684 96.1855 25.7176 95.4035 26.1391C95.3209 27.3537 95.26 28.5395 95.0773 29.7442C97.3861 31.345 98.9846 31.2705 97.5011 34.1629C95.0478 33.3863 92.5739 32.6736 90.0823 32.0256C88.6106 31.6578 86.7311 31.3322 85.332 30.912C86.2487 29.562 86.676 28.0394 86.7193 26.4216C86.8725 20.7501 81.8648 16.8314 76.3757 17.967C74.1877 18.4129 72.2718 19.7155 71.0595 21.5817C69.7891 23.525 69.514 25.7869 70.0131 28.0267C70.0642 28.2592 70.1202 28.4906 70.1811 28.7208C69.3136 28.6673 68.4333 28.6215 67.5687 28.5592C65.4318 28.45 63.2929 28.3735 61.1541 28.3295L60.9124 25.6998C59.8091 25.1596 58.7853 24.6567 57.7095 24.0609C57.8126 22.6342 58.3068 20.4676 58.692 19.13C59.6833 18.9215 61.2052 18.8455 62.282 18.711C62.9903 17.4973 63.5022 16.6393 64.3196 15.5053C63.8195 14.4583 63.3155 13.5437 62.838 12.4615C63.5621 11.2442 66.0311 9.4225 67.3467 8.88473C68.0717 9.29839 69.6015 10.5307 70.3226 11.0864C71.3434 10.7094 72.8928 10.1118 73.9224 9.9332C74.5011 9.46452 74.8912 7.37793 75.2625 6.46247Z" fill="url(#paint14_linear_70_288)"/>
<path d="M67.3467 8.8847C68.0717 9.29837 69.6015 10.5306 70.3226 11.0864C71.3434 10.7094 72.8928 10.1118 73.9224 9.93317C73.4921 10.2707 72.1314 10.6502 71.5615 10.824C71.7865 11.6828 72.9399 14.016 73.6218 14.5747C73.388 14.7108 73.4538 14.6107 73.3889 14.8592C70.7736 16.1156 71.0172 16.3397 68.8823 18.0753L69.0188 18.4172C67.5333 20.1702 66.1264 22.6694 66.0783 25.0145L66.095 25.1844C66.1471 25.7334 66.1588 27.8749 66.3209 28.2411C66.5019 28.5909 65.8668 28.2971 66.3718 28.4163H66.3209C64.184 28.3071 63.2929 28.3735 61.1541 28.3295L60.9124 25.6998C59.8091 25.1596 58.7853 24.6567 57.7095 24.0609C57.8126 22.6342 58.3068 20.4676 58.692 19.13C59.6833 18.9215 61.2052 18.8455 62.282 18.7109C62.9903 17.4973 63.5022 16.6393 64.3196 15.5052C63.8195 14.4582 63.3155 13.5436 62.838 12.4615C63.5621 11.2442 66.0311 9.42247 67.3467 8.8847Z" fill="url(#paint15_linear_70_288)"/>
<path d="M66.0787 25.0146C66.1183 25.388 66.1232 25.358 66.1183 25.6934H65.8714C65.7653 23.5889 66.6012 21.0972 67.7026 19.3151C67.8803 18.99 68.548 18.0537 69.1484 17.7286L69.0193 18.4172C67.5337 20.1703 66.1268 22.6694 66.0787 25.0146Z" fill="#55A506"/>
<path d="M75.263 6.46247C76.4391 6.28813 79.8247 6.05877 80.9221 6.61335C81.2758 6.79199 81.8879 9.26262 82.1267 9.9071L85.978 11.2363C86.8563 10.6312 87.9616 9.52491 88.8125 9.30376C89.9561 9.54308 92.2453 11.5182 93.0028 12.4514C93.4744 13.0322 92.205 15.139 91.9122 15.8383C92.147 16.2385 92.3779 16.6413 92.6029 17.0467C92.6304 17.3546 92.7051 17.4535 92.5322 17.6325C91.7953 18.3958 90.1889 19.2464 89.2624 19.7582C88.9402 19.7365 88.949 19.6901 88.6533 19.507C88.2475 19.0327 87.8408 18.3261 87.4213 17.9171C83.4078 14.0068 78.5897 13.0291 73.3894 14.8592C73.4543 14.6107 73.3885 14.7109 73.6223 14.5747C72.9404 14.0161 71.787 11.6828 71.562 10.824C72.1319 10.6502 73.4926 10.2707 73.9229 9.9332C74.5016 9.46452 74.8917 7.37793 75.263 6.46247Z" fill="url(#paint16_linear_70_288)"/>
<path d="M73.3895 14.8592C78.5898 13.0292 83.4078 14.0068 87.4213 17.9172C87.8408 18.3261 88.8553 19.6817 89.2611 20.156C89.8765 21.3725 89.8333 21.3777 90.2852 22.6787L90.3708 22.9969C90.5292 23.5196 90.5292 24.3605 90.4739 24.8745C90.3147 24.1809 90.2617 23.5704 89.8765 22.9969C89.4324 21.3103 88.114 19.1613 86.8239 17.9789C81.5136 13.1109 74.032 13.2881 69.0194 18.4172L68.8828 18.0754C69.3935 17.2128 70.7741 16.1156 73.3895 14.8592Z" fill="#55A506"/>
<path d="M90.2852 23.0077C90.859 24.2653 90.7695 25.9365 90.6232 27.278C90.5583 26.9997 90.463 27.2737 90.4591 26.9851C90.3186 27.1556 90.4728 26.784 90.4591 27.0617L90.3942 27.0293C90.3215 25.3249 90.2832 24.6766 89.8765 22.9969C90.2616 23.5704 90.3146 24.1809 90.4738 24.8745C90.461 24.3082 90.1948 23.4634 90.2852 23.0077Z" fill="#55A506"/>
<path d="M5.63086 43.6198C23.9373 34.0137 41.1841 30.3658 61.8352 30.4597C62.9169 30.8246 63.7727 30.6498 64.8799 30.7026C67.1239 30.8094 69.474 30.7382 71.6827 31.1509C72.2672 31.2636 73.0051 31.1609 73.403 31.3326C73.347 31.7772 73.234 33.013 73.007 33.3358C72.227 33.4861 70.8918 33.375 70.0242 33.3892C67.6604 33.4277 63.5949 33.3166 61.3518 33.812L61.3008 33.9316C52.6622 34.7171 44.1637 36.6179 36.0191 39.586C34.1116 40.3054 32.2207 41.0674 30.3476 41.8713C29.7985 42.1107 26.6585 43.6012 26.3183 43.5882C19.6914 43.3315 12.449 42.6072 5.80722 43.5928L5.63086 43.6198Z" fill="#13501E"/>
<path d="M70.7911 35.0939C78.4997 34.8544 86.5187 35.6541 94.0937 37.0188C95.2294 37.2235 96.376 37.4182 97.4783 37.7652C96.8593 37.753 95.7639 37.5999 95.0928 37.5445C93.6908 37.4298 92.2849 37.3662 90.878 37.3542C77.0594 37.2054 66.3414 38.9263 53.514 44.2038C50.517 45.4677 48.0241 46.7568 45.1527 48.237C40.2806 46.5933 35.2872 45.3297 30.2178 44.4576C31.8988 43.474 35.7196 41.9987 37.5922 41.3038C48.6898 37.1857 59.0347 35.5565 70.7911 35.0939Z" fill="#55A506"/>
<path d="M88.5227 39.1026C94.8538 38.9247 104.933 40.2081 111 42.0816C110.086 42.1036 108.799 41.9794 107.854 41.9378C105.562 41.8275 103.268 41.7798 100.973 41.7949C90.3864 41.9664 78.8118 44.1642 69.038 48.1914C65.9835 49.4262 63.4929 50.694 60.6349 52.258C60.0532 52.1277 59.4549 51.9617 58.8782 51.8048C55.9189 50.9996 52.8899 50.3653 49.9424 49.5231C61.4513 42.7687 75.2257 39.4248 88.5227 39.1026Z" fill="url(#paint17_linear_70_288)"/>
<path d="M61.8352 30.4597C76.1107 30.5861 90.2507 33.226 103.601 38.2569L103.303 38.3964C102.068 37.8571 97.129 36.748 95.7673 36.4372C84.174 33.7919 73.1869 32.8534 61.3008 33.9316L61.3519 33.812C63.5949 33.3166 67.6604 33.4277 70.0243 33.3892C70.8918 33.3751 72.227 33.4862 73.0071 33.3358C73.234 33.013 73.347 31.7772 73.403 31.3326C73.0051 31.1609 72.2673 31.2637 71.6827 31.1509C69.4741 30.7382 67.124 30.8094 64.88 30.7026C63.7727 30.6499 62.917 30.8246 61.8352 30.4597Z" fill="#13501E"/>
<path d="M54.1584 14.6244C55.0996 13.4846 56.7079 12.5359 56.8917 11.4936C57.2395 11.9744 57.9842 12.8791 58.4341 13.2423C58.8311 13.2736 58.7102 13.6074 59.4353 13.3735C59.7468 12.981 59.6534 13.1399 59.7301 12.6015C59.8234 12.6693 59.9315 12.7359 60.0022 12.8181C60.0592 13.1227 60.0444 13.2076 60.24 13.4453C60.5494 13.5863 60.9228 13.4961 61.2755 13.4541L61.8886 14.4929L62.2462 15.2941L61.193 17.1008C60.1732 17.2095 57.6108 17.2423 57.1068 18.1989C56.4977 18.1221 56.2399 17.5615 55.8665 17.1008C55.2004 16.2032 54.3794 15.138 53.6307 14.3105C53.239 13.8679 52.5506 13.2985 52.0864 12.8913C52.8697 13.127 53.6324 13.9964 54.1584 14.6244Z" fill="url(#paint18_linear_70_288)"/>
<path d="M58.4346 13.2423C58.8315 13.2736 58.7107 13.6074 59.4357 13.3735C59.7472 12.981 59.6538 13.1399 59.7305 12.6015C59.8238 12.6693 59.9319 12.7359 60.0026 12.8181C60.0596 13.1227 60.0449 13.2076 60.2404 13.4453C60.5499 13.5864 60.9232 13.4962 61.2759 13.4541L61.889 14.4929C61.3172 14.6395 60.5646 14.7738 59.9741 14.8967C59.4328 14.4292 58.8708 13.8067 58.4346 13.2423Z" fill="#646364"/>
<path d="M103.601 38.2569C104.41 38.5332 105.706 39.0017 106.449 39.4252C105.378 39.142 104.348 38.7623 103.303 38.3964L103.601 38.2569Z" fill="#13501E"/>
<defs>
<linearGradient id="paint0_linear_70_288" x1="0.0824527" y1="16.4687" x2="1.06321" y2="16.8929" gradientUnits="userSpaceOnUse">
<stop stop-color="#2F3016"/>
<stop offset="1" stop-color="#242425"/>
</linearGradient>
<linearGradient id="paint1_linear_70_288" x1="58.1728" y1="8.54181" x2="27.2143" y2="6.33911" gradientUnits="userSpaceOnUse">
<stop stop-color="#A09F9F"/>
<stop offset="1" stop-color="white"/>
</linearGradient>
<linearGradient id="paint2_linear_70_288" x1="22.6087" y1="19.839" x2="29.948" y2="4.68847" gradientUnits="userSpaceOnUse">
<stop stop-color="#D1D0D0"/>
<stop offset="1" stop-color="white"/>
</linearGradient>
<linearGradient id="paint3_linear_70_288" x1="17.4307" y1="18.2217" x2="19.0733" y2="12.9145" gradientUnits="userSpaceOnUse">
<stop stop-color="#434243"/>
<stop offset="1" stop-color="#686767"/>
</linearGradient>
<linearGradient id="paint4_linear_70_288" x1="41.1295" y1="18.4575" x2="36.0843" y2="0.399525" gradientUnits="userSpaceOnUse">
<stop stop-color="#656464"/>
<stop offset="1" stop-color="#B0AFAF"/>
</linearGradient>
<linearGradient id="paint5_linear_70_288" x1="19.8258" y1="33.9519" x2="20.8504" y2="25.6031" gradientUnits="userSpaceOnUse">
<stop stop-color="#767576"/>
<stop offset="1" stop-color="#AEADAD"/>
</linearGradient>
<linearGradient id="paint6_linear_70_288" x1="19.7049" y1="25.9185" x2="21.1115" y2="18.7065" gradientUnits="userSpaceOnUse">
<stop stop-color="#A9A7A7"/>
<stop offset="1" stop-color="#CECDCD"/>
</linearGradient>
<linearGradient id="paint7_linear_70_288" x1="26.5941" y1="25.3336" x2="24.114" y2="20.1317" gradientUnits="userSpaceOnUse">
<stop stop-color="#403E3F"/>
<stop offset="1" stop-color="#6A6A6A"/>
</linearGradient>
<linearGradient id="paint8_linear_70_288" x1="16.0944" y1="31.5105" x2="23.4693" y2="21.0327" gradientUnits="userSpaceOnUse">
<stop stop-color="#131213"/>
<stop offset="1" stop-color="#444444"/>
</linearGradient>
<linearGradient id="paint9_linear_70_288" x1="27.1405" y1="32.7314" x2="26.622" y2="26.0503" gradientUnits="userSpaceOnUse">
<stop stop-color="#838182"/>
<stop offset="1" stop-color="#B1AFAF"/>
</linearGradient>
<linearGradient id="paint10_linear_70_288" x1="26.757" y1="30.1295" x2="23.566" y2="29.0256" gradientUnits="userSpaceOnUse">
<stop stop-color="#13120E"/>
<stop offset="1" stop-color="#3C3D41"/>
</linearGradient>
<linearGradient id="paint11_linear_70_288" x1="39.442" y1="21.7628" x2="34.0695" y2="12.3171" gradientUnits="userSpaceOnUse">
<stop stop-color="#989797"/>
<stop offset="1" stop-color="#F2F2F2"/>
</linearGradient>
<linearGradient id="paint12_linear_70_288" x1="39.9906" y1="17.6304" x2="38.1454" y2="9.93125" gradientUnits="userSpaceOnUse">
<stop stop-color="#646363"/>
<stop offset="1" stop-color="#9D9C9D"/>
</linearGradient>
<linearGradient id="paint13_linear_70_288" x1="57.5128" y1="22.1696" x2="51.0959" y2="16.1827" gradientUnits="userSpaceOnUse">
<stop stop-color="#5F5F5F"/>
<stop offset="1" stop-color="#9D9B9B"/>
</linearGradient>
<linearGradient id="paint14_linear_70_288" x1="90.1737" y1="15.0585" x2="77.461" y2="35.2812" gradientUnits="userSpaceOnUse">
<stop stop-color="#1F6A13"/>
<stop offset="1" stop-color="#0E1A00"/>
</linearGradient>
<linearGradient id="paint15_linear_70_288" x1="70.6901" y1="10.3673" x2="60.2346" y2="27.3978" gradientUnits="userSpaceOnUse">
<stop stop-color="#2A7B0D"/>
<stop offset="1" stop-color="#04342B"/>
</linearGradient>
<linearGradient id="paint16_linear_70_288" x1="83.9924" y1="7.57504" x2="81.1469" y2="17.4415" gradientUnits="userSpaceOnUse">
<stop stop-color="#62B000"/>
<stop offset="1" stop-color="#24770E"/>
</linearGradient>
<linearGradient id="paint17_linear_70_288" x1="79.1674" y1="39.8789" x2="80.4089" y2="49.3666" gradientUnits="userSpaceOnUse">
<stop stop-color="#17561F"/>
<stop offset="1" stop-color="#04382A"/>
</linearGradient>
<linearGradient id="paint18_linear_70_288" x1="59.8037" y1="17.6124" x2="56.4053" y2="12.0833" gradientUnits="userSpaceOnUse">
<stop stop-color="#858484"/>
<stop offset="1" stop-color="#A1A0A0"/>
</linearGradient>
</defs>
</svg>
